<svg width="14" height="11" viewBox="0 0 14 11" fill="none" xmlns="http://www.w3.org/2000/svg">
<path d="M12.2497 0.916667C11.6022 0.7125 10.8905 0.625 10.208 0.625C9.07051 0.625 7.84551 0.858333 6.99967 1.5C6.15384 0.858333 4.92884 0.625 3.79134 0.625C2.65384 0.625 1.42884 0.858333 0.583008 1.5V10.0458C0.583008 10.1917 0.728841 10.3375 0.874674 10.3375C0.933008 10.3375 0.962174 10.3083 1.02051 10.3083C1.80801 9.92917 2.94551 9.66667 3.79134 9.66667C4.92884 9.66667 6.15384 9.9 6.99967 10.5417C7.78717 10.0458 9.21634 9.66667 10.208 9.66667C11.1705 9.66667 12.1622 9.84167 12.9788 10.2792C13.0372 10.3083 13.0663 10.3083 13.1247 10.3083C13.2705 10.3083 13.4163 10.1625 13.4163 10.0167V1.5C13.0663 1.2375 12.6872 1.0625 12.2497 0.916667ZM12.2497 8.79167C11.608 8.5875 10.908 8.5 10.208 8.5C9.21634 8.5 7.78717 8.87917 6.99967 9.375V2.66667C7.78717 2.17083 9.21634 1.79167 10.208 1.79167C10.908 1.79167 11.608 1.87917 12.2497 2.08333V8.79167Z" fill="black"/>
</svg>
