<svg width="14" height="10" viewBox="0 0 14 10" fill="none" xmlns="http://www.w3.org/2000/svg">
<path d="M9.72363 5.65918C10.5228 6.20168 11.0828 6.93668 11.0828 7.91668V9.66668H13.4161V7.91668C13.4161 6.64501 11.3336 5.89251 9.72363 5.65918Z" fill="black"/>
<path d="M8.74947 4.99992C10.0386 4.99992 11.0828 3.95575 11.0828 2.66659C11.0828 1.37742 10.0386 0.333252 8.74947 0.333252C8.4753 0.333252 8.21863 0.391585 7.97363 0.473252C8.4578 1.07409 8.74947 1.83825 8.74947 2.66659C8.74947 3.49492 8.4578 4.25909 7.97363 4.85992C8.21863 4.94159 8.4753 4.99992 8.74947 4.99992Z" fill="black"/>
<path d="M5.24935 4.99992C6.53852 4.99992 7.58268 3.95575 7.58268 2.66659C7.58268 1.37742 6.53852 0.333252 5.24935 0.333252C3.96018 0.333252 2.91602 1.37742 2.91602 2.66659C2.91602 3.95575 3.96018 4.99992 5.24935 4.99992ZM5.24935 1.49992C5.89102 1.49992 6.41602 2.02492 6.41602 2.66659C6.41602 3.30825 5.89102 3.83325 5.24935 3.83325C4.60768 3.83325 4.08268 3.30825 4.08268 2.66659C4.08268 2.02492 4.60768 1.49992 5.24935 1.49992Z" fill="black"/>
<path d="M5.24967 5.58325C3.69217 5.58325 0.583008 6.36492 0.583008 7.91659V9.66659H9.91634V7.91659C9.91634 6.36492 6.80717 5.58325 5.24967 5.58325ZM8.74967 8.49992H1.74967V7.92242C1.86634 7.50242 3.67467 6.74992 5.24967 6.74992C6.82467 6.74992 8.63301 7.50242 8.74967 7.91659V8.49992Z" fill="black"/>
</svg>
