<svg width="15" height="10" viewBox="0 0 15 10" fill="none" xmlns="http://www.w3.org/2000/svg">
<path d="M7.5 1.75C9.86875 1.75 11.9812 3.08125 13.0125 5.1875C11.9812 7.29375 9.86875 8.625 7.5 8.625C5.13125 8.625 3.01875 7.29375 1.9875 5.1875C3.01875 3.08125 5.13125 1.75 7.5 1.75ZM7.5 0.5C4.375 0.5 1.70625 2.44375 0.625 5.1875C1.70625 7.93125 4.375 9.875 7.5 9.875C10.625 9.875 13.2937 7.93125 14.375 5.1875C13.2937 2.44375 10.625 0.5 7.5 0.5ZM7.5 4.875C8.3625 4.875 9.0625 5.575 9.0625 6.4375C9.0625 7.3 8.3625 6.75 7.5 6.75C6.6375 6.75 5.9375 6.05 5.9375 5.1875C5.9375 4.325 6.6375 3.625 7.5 3.625M7.5 2.375C5.95 2.375 4.6875 3.6375 4.6875 5.1875C4.6875 6.7375 5.95 8 7.5 8C9.05 8 10.3125 6.7375 10.3125 5.1875C10.3125 3.6375 9.05 2.375 7.5 2.375Z" fill="black"/>
</svg>
